# xmcd CD database file
#
# Track frame offsets:
#	150
#	37403
#	69999
#	100178
#	141478
#	178719
#
# Disc length: 2719 seconds
#
# Revision: 0
# Processed by: cddbd v1.5.2PL0 Copyright (c) Steve Scherf et al.
# Submitted via: CDex 1.70beta2
#
DISCID=580a9d06
DTITLE=Grant Green - Remembering
DYEAR=1961
DGENRE=Jazz
TTITLE0=All The Things You Are
TTITLE1=If I Had You
TTITLE2=Love Walked In
TTITLE3=I'll Remember April
TTITLE4=You And The Night And The Music
TTITLE5=I Remember You
EXTD=YEAR: 1961
EXTT0=
EXTT1=
EXTT2=
EXTT3=
EXTT4=
EXTT5=
PLAYORDER=
